<svg width="204" height="186" viewBox="0 0 204 186" fill="none" xmlns="http://www.w3.org/2000/svg">
<rect width="204" height="186" fill="black"/>
<path d="M94.2085 125.739C92.5468 127.063 65.614 92.0587 53.29 83.1606C54.5363 83.1606 92.1296 104.929 92.5468 104.56C96.2855 101.251 110.41 59.9961 111.241 59.9961C113.733 61.761 134.711 91.3969 148.212 102.133C146.759 102.133 113.941 82.0575 112.694 83.1606C111.241 83.1606 96.4933 125.739 94.2085 125.739Z" fill="#1CDBF5"/>
<path d="M78.1322 81.4247L84.9306 92.9991C61.9207 59.1976 25.1522 70.168 24.4 92.9991C23.8205 110.587 39.9896 118.54 66.0666 107.138C63.9936 111.925 55.0799 122.294 36.0086 125.475C-12.2491 131.133 -10.2186 55 31.448 55C54.8726 55 72.8116 71.9249 78.1322 81.4247Z" fill="#1C58F5"/>
<path d="M124.596 102.739L118.103 90.9354C140.224 125.502 177.325 115.639 178.693 92.7898C179.747 75.1884 163.776 66.7255 137.367 77.3488C139.571 72.617 148.772 62.5028 167.948 59.9001C216.406 55.7107 212.321 131.918 170.614 130.641C147.166 129.923 129.666 112.419 124.596 102.739Z" fill="#1C58F5"/>
<path d="M79.6655 83.4287L84.931 92.4158C67.1095 66.1699 38.632 74.6881 38.0494 92.4158C37.6006 106.072 50.1237 112.248 70.3206 103.395C68.7151 107.111 61.8113 115.162 47.0404 117.632C9.66429 122.026 11.237 62.9106 43.5082 62.9106C61.6507 62.9106 75.5447 76.0524 79.6655 83.4287Z" fill="#1CDBF5"/>
<path d="M123.535 100.001L118.237 91.0816C136.171 117.129 164.829 108.675 165.415 91.0816C165.867 77.5287 153.264 71.4 132.94 80.1861C134.555 76.4975 141.503 68.5075 156.367 66.056C193.98 61.6962 192.397 120.363 159.922 120.363C141.664 120.363 127.682 107.321 123.535 100.001Z" fill="#1CDBF5"/>
</svg>
